<svg
    xmlns="http://www.w3.org/2000/svg"
    version="1.1"
    xmlns:xlink="http://www.w3.org/1999/xlink"
    xmlns:svgjs="http://svgjs.com/svgjs"
    width="100%"
    height="100%"
    viewBox="0 0 400 400"
>
  <path
        d=" 
            M 0 100
            C 100 200 100 200 150 100
            S 300 200 400 200 

            M 0 100
            C 100 100 100 100 150 100
            S 300 200 400 100 
       
            M 0 100
            C 100 100 100 100 150 200
            S 300 200 400 100 

            M 0 200
            C 100 200 100 200 150 100
            S 300 100 400 100 
       
            "
        stroke="hsla(200, 12%, 26%, 1)"
        stroke-width="1"
        fill="transparent"
        vector-effect="non-scaling-stroke"
    />
 
    <circle
        cx="300"
        cy="50"
        r="20"
        stroke="hsla(200, 12%, 26%, 1)"
        stroke-width="1"
        fill="hsla(200, 12%, 26%, 1)"
        vector-effect="non-scaling-stroke"
    />
      <!-- <path
        d=" 
            M 0 300
            C 150 200 150 250 250 300
            S 300 200 300 200 

            M 0 200
            C 100 100 150 200 350 150
            S 300 400 400 300 
       
            M 0 400
            C 150 300 150 100 250 200
            S 300 200 300 100 

            M 0 100
            C 150 300 150 400 250 150
            S 300 300 300 100 
        
            "
        stroke="hsla(200, 12%, 22%, 1)"
        stroke-width="1"
        fill="transparent"
        vector-effect="non-scaling-stroke"
    /> -->
</svg>
